<?xml version="1.0" encoding="iso-8859-1"?>
<!-- Generator: Adobe Illustrator 16.0.4, SVG Export Plug-In . SVG Version: 6.00 Build 0)  -->
<!DOCTYPE svg PUBLIC "-//W3C//DTD SVG 1.1//EN" "http://www.w3.org/Graphics/SVG/1.1/DTD/svg11.dtd">
<svg version="1.1" id="Capa_1" xmlns="http://www.w3.org/2000/svg" xmlns:xlink="http://www.w3.org/1999/xlink" x="0px" y="0px"
	 width="56.804px" height="51.694px" viewBox="0 0 56.804 51.694" style="enable-background:new 0 0 56.804 51.694;"
	 xml:space="preserve">
<g id="_x32_7">
	<g>
		<path d="M56.582,1.796C56.13,0.704,55.077,0,53.897,0H2.907c-1.18,0-2.233,0.704-2.685,1.796c-0.451,1.091-0.204,2.336,0.63,3.171
			l20.177,20.21v25.287c0,0.681,0.55,1.23,1.229,1.23c0.68,0,1.229-0.55,1.229-1.23V24.667c0-0.327-0.13-0.64-0.36-0.87L2.591,3.226
			c-0.184-0.185-0.14-0.385-0.098-0.487c0.043-0.104,0.153-0.276,0.414-0.276h50.99c0.26,0,0.37,0.173,0.414,0.276
			c0.042,0.103,0.086,0.303-0.098,0.487L33.678,23.797c-0.23,0.23-0.36,0.543-0.36,0.87v18.412c0,0.681,0.55,1.23,1.229,1.23
			c0.68,0,1.229-0.55,1.229-1.23V25.177l20.177-20.21C56.785,4.132,57.033,2.887,56.582,1.796z"/>
	</g>
</g>
<g>
</g>
<g>
</g>
<g>
</g>
<g>
</g>
<g>
</g>
<g>
</g>
<g>
</g>
<g>
</g>
<g>
</g>
<g>
</g>
<g>
</g>
<g>
</g>
<g>
</g>
<g>
</g>
<g>
</g>
</svg>
