<?xml version="1.0" encoding="iso-8859-1"?>
<!-- Generator: Adobe Illustrator 18.0.0, SVG Export Plug-In . SVG Version: 6.00 Build 0)  -->
<!DOCTYPE svg PUBLIC "-//W3C//DTD SVG 1.1//EN" "http://www.w3.org/Graphics/SVG/1.1/DTD/svg11.dtd">
<svg version="1.1" id="Capa_1" xmlns="http://www.w3.org/2000/svg" xmlns:xlink="http://www.w3.org/1999/xlink" x="0px" y="0px"
	 viewBox="0 90 612 612" style="enable-background:new 0 90 612 612;" xml:space="preserve">
<g>
	<g>
		<path d="M319.276,492.639H121.114c-6.62,0-11.604-6.905-11.604-16.065c0-9.159,4.983-16.041,11.604-16.041h198.163
			c6.62,0,11.604,6.905,11.604,16.041C330.88,485.71,325.897,492.639,319.276,492.639z M122.229,480.774h195.932
			c0.403-0.736,0.854-2.183,0.854-4.2c0-1.993-0.475-3.464-0.854-4.176H122.229c-0.403,0.736-0.854,2.183-0.854,4.176
			C121.375,478.591,121.849,480.039,122.229,480.774z"/>
		<path d="M280.289,539.433H82.151c-6.62,0-11.604-6.905-11.604-16.065c0-9.159,4.983-16.041,11.604-16.041H280.29
			c6.62,0,11.604,6.905,11.604,16.041C291.893,532.528,286.91,539.433,280.289,539.433z M83.29,527.568h195.885
			c0.38-0.736,0.854-2.183,0.854-4.2c0-1.993-0.498-3.464-0.854-4.176H83.266c-0.38,0.736-0.854,2.183-0.854,4.176
			C82.412,525.385,82.886,526.833,83.29,527.568z"/>
		<path d="M338.687,586.227H140.548c-6.597,0-11.58-6.905-11.58-16.065c0-9.136,4.983-16.041,11.58-16.041h198.163
			c6.62,0,11.627,6.905,11.627,16.041C350.338,579.322,345.331,586.227,338.687,586.227z M141.687,574.362h195.908
			c0.403-0.736,0.878-2.183,0.878-4.2c0-2.586-0.807-4.248-1.163-4.604l-195.624,0.451c-0.403,0.736-0.854,2.183-0.854,4.176
			C140.833,572.155,141.284,573.627,141.687,574.362z"/>
	</g>
	<path d="M496.842,538.413c-11.699,0-20.312-0.356-32.485-0.854l-4.983-0.214H353.352c-6.549,0-11.865-5.315-11.865-11.865
		s5.315-11.865,11.865-11.865l112.002,0.214c11.793,0.498,20.146,0.831,31.489,0.831c50.401,0,91.429-41.028,91.429-91.429
		s-41.028-91.405-91.429-91.405c-13.265,0-26.197,2.871-38.394,8.543c-3.18,1.471-6.763,1.471-9.943,0.024
		c-3.156-1.447-5.505-4.2-6.454-7.522c-17.346-60.272-73.3-102.368-136.063-102.368c-49.997,0-94.988,43.852-120.426,84.879
		c-2.99,4.817-8.993,6.882-14.261,4.841c-12.505-4.698-25.438-7.071-38.441-7.071c-50.33,0-109.131,23.943-109.131,91.405
		c0,30.824,13.122,60.343,35.997,81.012c4.864,4.39,5.268,11.888,0.854,16.753c-4.39,4.864-11.865,5.268-16.753,0.854
		C15.97,478.022,0,442.096,0,404.556c0-68.862,53.391-115.158,132.86-115.158c12.695,0,25.319,1.851,37.658,5.529
		c29.59-43.994,79.113-88.154,135.47-88.154c68.933,0,130.819,43.472,154.762,107.185c11.675-3.892,23.753-5.861,36.092-5.861
		c63.499,0,115.158,51.658,115.158,115.158S560.342,538.413,496.842,538.413z"/>
</g>
</svg>
