<?xml version="1.0" encoding="iso-8859-1"?>
<!-- Generator: Adobe Illustrator 18.0.0, SVG Export Plug-In . SVG Version: 6.00 Build 0)  -->
<!DOCTYPE svg PUBLIC "-//W3C//DTD SVG 1.1//EN" "http://www.w3.org/Graphics/SVG/1.1/DTD/svg11.dtd">
<svg version="1.1" id="Capa_1" xmlns="http://www.w3.org/2000/svg" xmlns:xlink="http://www.w3.org/1999/xlink" x="0px" y="0px"
	 viewBox="0 0 27.24 28.09" style="enable-background:new 0 0 27.24 28.09;" xml:space="preserve">
<g>
	<path d="M26.017,0H1.223C0.547,0,0,0.547,0,1.223v16.985c0,0.676,0.547,1.222,1.223,1.222h8.034l-5.983,6.617
		c-0.452,0.501-0.413,1.274,0.088,1.728c0.234,0.211,0.525,0.314,0.819,0.314c0.334,0,0.667-0.135,0.908-0.402l7.465-8.257h2.205
		l7.467,8.257c0.24,0.267,0.572,0.402,0.906,0.402c0.295,0,0.586-0.103,0.82-0.314c0.5-0.454,0.539-1.227,0.088-1.728l-5.983-6.617
		h7.959c0.678,0,1.223-0.546,1.223-1.222V1.223C27.24,0.547,26.695,0,26.017,0z M24.795,16.985H2.446V2.446h22.349V16.985z"/>
	<path d="M5.364,14.886c0.387,0,0.77-0.184,1.005-0.528l2.771-4.003l1.627,2.423c0.231,0.344,0.668,0.487,1.033,0.542
		c0.416-0.007,0.798-0.223,1.018-0.576l2.887-4.625l2.795,4.697c0.215,0.359,0.598,0.583,1.016,0.597
		c0.418,0.023,0.81-0.191,1.049-0.536l2.326-3.429c0.377-0.56,0.23-1.32-0.328-1.699c-0.557-0.381-1.318-0.233-1.697,0.325
		l-1.248,1.837l-2.834-4.767c-0.217-0.366-0.611-0.592-1.035-0.597c-0.516,0.008-0.826,0.213-1.053,0.576l-2.952,4.724l-1.574-2.346
		C9.944,7.166,9.567,6.962,9.164,6.959c-0.005,0-0.008,0-0.01,0c-0.401,0-0.776,0.197-1.006,0.528l-3.79,5.481
		c-0.384,0.555-0.246,1.317,0.311,1.7C4.882,14.816,5.123,14.886,5.364,14.886z"/>
</g>
<g>
</g>
<g>
</g>
<g>
</g>
<g>
</g>
<g>
</g>
<g>
</g>
<g>
</g>
<g>
</g>
<g>
</g>
<g>
</g>
<g>
</g>
<g>
</g>
<g>
</g>
<g>
</g>
<g>
</g>
</svg>
