<?xml version="1.0" encoding="iso-8859-1"?>
<!-- Generator: Adobe Illustrator 17.0.0, SVG Export Plug-In . SVG Version: 6.00 Build 0)  -->
<!DOCTYPE svg PUBLIC "-//W3C//DTD SVG 1.1//EN" "http://www.w3.org/Graphics/SVG/1.1/DTD/svg11.dtd">
<svg version="1.1" id="Capa_1" xmlns="http://www.w3.org/2000/svg" xmlns:xlink="http://www.w3.org/1999/xlink" x="0px" y="0px"
	 width="64px" height="64px" viewBox="0 0 64 64" style="enable-background:new 0 0 64 64;" xml:space="preserve">
<path d="M9.909,53.748h45.144c1.038,0,1.883-0.844,1.883-1.883c0-1.039-0.845-1.883-1.883-1.883H11.789V28.77
	c0-1.037-0.843-1.88-1.88-1.88c-1.038,0-1.883,0.843-1.883,1.88v23.096C8.026,52.904,8.871,53.748,9.909,53.748z"/>
<path d="M28.073,30.958c-1.859,0-3.367,1.507-3.367,3.367v9.82c0,1.859,1.507,3.367,3.367,3.367h0.501
	c1.859,0,3.367-1.507,3.367-3.367v-9.82c0-1.859-1.508-3.367-3.367-3.367H28.073z"/>
<path d="M39.61,25.346h-0.501c-1.859,0-3.367,1.508-3.367,3.367v15.432c0,1.859,1.507,3.367,3.367,3.367h0.501
	c1.859,0,3.367-1.507,3.367-3.367V28.713C42.977,26.854,41.47,25.346,39.61,25.346z"/>
<path d="M50.646,17.49h-0.501c-1.859,0-3.367,1.507-3.367,3.367v23.288c0,1.859,1.507,3.367,3.367,3.367h0.501
	c1.859,0,3.367-1.507,3.367-3.367V20.857C54.014,18.998,52.506,17.49,50.646,17.49z"/>
<path d="M17.702,34.979c-1.859,0-3.367,1.508-3.367,3.367v5.799c0,1.859,1.508,3.367,3.367,3.367h0.501
	c1.859,0,3.367-1.507,3.367-3.367v-5.799c0-1.859-1.508-3.367-3.367-3.367H17.702z"/>
</svg>
