<?xml version="1.0" encoding="iso-8859-1"?>
<!-- Generator: Adobe Illustrator 16.0.0, SVG Export Plug-In . SVG Version: 6.00 Build 0)  -->
<!DOCTYPE svg PUBLIC "-//W3C//DTD SVG 1.1//EN" "http://www.w3.org/Graphics/SVG/1.1/DTD/svg11.dtd">
<svg version="1.1" id="Capa_1" xmlns="http://www.w3.org/2000/svg" xmlns:xlink="http://www.w3.org/1999/xlink" x="0px" y="0px"
	 width="30.052px" height="30.048px" viewBox="0 0 30.052 30.048" style="enable-background:new 0 0 30.052 30.048;"
	 xml:space="preserve">
<path d="M19.982,14.436L13.742,9.9c-0.229-0.166-0.533-0.191-0.784-0.062c-0.253,0.128-0.411,0.388-0.411,0.669v9.069
	c0,0.284,0.158,0.543,0.411,0.671c0.107,0.054,0.224,0.081,0.342,0.081c0.154,0,0.31-0.049,0.442-0.146l6.24-4.532
	c0.197-0.145,0.312-0.369,0.312-0.607C20.295,14.801,20.177,14.578,19.982,14.436z"/>
<path d="M15.026,0C6.726,0,0,6.726,0,15.026c0,8.297,6.726,15.021,15.026,15.021c8.298,0,15.025-6.725,15.025-15.021
	C30.052,6.726,23.324,0,15.026,0z M15.026,27.54c-6.912,0-12.516-5.601-12.516-12.514c0-6.91,5.604-12.518,12.516-12.518
	c6.911,0,12.514,5.607,12.514,12.518C27.541,21.939,21.937,27.54,15.026,27.54z"/>
<g>
</g>
<g>
</g>
<g>
</g>
<g>
</g>
<g>
</g>
<g>
</g>
<g>
</g>
<g>
</g>
<g>
</g>
<g>
</g>
<g>
</g>
<g>
</g>
<g>
</g>
<g>
</g>
<g>
</g>
</svg>
